<svg xmlns="http://www.w3.org/2000/svg" xmlns:xlink="http://www.w3.org/1999/xlink" width="250" zoomAndPan="magnify" viewBox="0 0 187.5 187.499992" height="250" preserveAspectRatio="xMidYMid meet" version="1.0"><defs><clipPath id="26b1584c8e"><path d="M 18.75 18.75 L 168.75 18.75 L 168.75 168.75 L 18.75 168.75 Z M 18.75 18.75 " clip-rule="nonzero"/></clipPath></defs><g clip-path="url(#26b1584c8e)"><path fill="#ffffff" d="M 167.597656 43.585938 C 168.3125 44.300781 168.757812 45.289062 168.757812 46.382812 C 168.757812 47.476562 168.316406 48.460938 167.597656 49.175781 L 143.914062 72.859375 C 143.199219 73.574219 142.207031 74.015625 141.117188 74.015625 C 138.933594 74.015625 137.167969 72.25 137.167969 70.066406 C 137.167969 68.976562 137.609375 67.984375 138.324219 67.269531 L 155.273438 50.328125 L 54.277344 50.328125 C 47.734375 50.328125 42.433594 55.628906 42.433594 62.171875 L 42.433594 77.960938 C 42.433594 80.140625 40.664062 81.90625 38.488281 81.90625 C 36.308594 81.90625 34.539062 80.140625 34.539062 77.960938 L 34.539062 62.171875 C 34.539062 51.273438 43.378906 42.433594 54.277344 42.433594 L 155.273438 42.433594 L 138.324219 25.492188 C 137.609375 24.777344 137.167969 23.785156 137.167969 22.699219 C 137.167969 20.515625 138.933594 18.746094 141.117188 18.746094 C 142.207031 18.746094 143.199219 19.1875 143.914062 19.902344 Z M 149.011719 105.59375 C 146.835938 105.59375 145.066406 107.359375 145.066406 109.539062 L 145.066406 125.328125 C 145.066406 131.871094 139.765625 137.171875 133.222656 137.171875 L 32.226562 137.171875 L 49.175781 120.230469 C 49.890625 119.515625 50.332031 118.523438 50.332031 117.433594 C 50.332031 115.25 48.566406 113.484375 46.382812 113.484375 C 45.292969 113.484375 44.300781 113.925781 43.585938 114.640625 L 19.902344 138.324219 C 19.1875 139.039062 18.742188 140.023438 18.742188 141.117188 C 18.742188 142.210938 19.183594 143.199219 19.902344 143.914062 L 43.585938 167.597656 C 44.300781 168.3125 45.292969 168.753906 46.382812 168.753906 C 48.566406 168.753906 50.332031 166.984375 50.332031 164.800781 C 50.332031 163.714844 49.890625 162.722656 49.175781 162.007812 L 32.226562 145.066406 L 133.222656 145.066406 C 144.121094 145.066406 152.960938 136.226562 152.960938 125.328125 L 152.960938 109.539062 C 152.960938 107.359375 151.191406 105.59375 149.011719 105.59375 Z M 149.011719 105.59375 " fill-opacity="1" fill-rule="nonzero"/></g></svg>