<svg xmlns="http://www.w3.org/2000/svg" xmlns:xlink="http://www.w3.org/1999/xlink" width="250" zoomAndPan="magnify" viewBox="0 0 187.5 187.499992" height="250" preserveAspectRatio="xMidYMid meet" version="1.0"><defs><clipPath id="478462fc8c"><path d="M 42 18.75 L 158.359375 18.75 L 158.359375 168.75 L 42 168.75 Z M 42 18.75 " clip-rule="nonzero"/></clipPath><clipPath id="14c286ec19"><path d="M 29.359375 129 L 60 129 L 60 146 L 29.359375 146 Z M 29.359375 129 " clip-rule="nonzero"/></clipPath><clipPath id="0a8486895e"><path d="M 29.359375 100 L 60 100 L 60 117 L 29.359375 117 Z M 29.359375 100 " clip-rule="nonzero"/></clipPath><clipPath id="ea80f2c389"><path d="M 29.359375 71 L 60 71 L 60 88 L 29.359375 88 Z M 29.359375 71 " clip-rule="nonzero"/></clipPath><clipPath id="881e9f861b"><path d="M 29.359375 42 L 60 42 L 60 59 L 29.359375 59 Z M 29.359375 42 " clip-rule="nonzero"/></clipPath></defs><path fill="#ffffff" d="M 44.5 104.90625 C 44.191406 104.90625 43.894531 104.847656 43.609375 104.730469 C 43.324219 104.609375 43.074219 104.441406 42.855469 104.226562 C 42.636719 104.007812 42.46875 103.753906 42.351562 103.472656 C 42.230469 103.1875 42.171875 102.890625 42.171875 102.582031 L 42.171875 84.917969 C 42.171875 84.609375 42.230469 84.3125 42.351562 84.027344 C 42.46875 83.746094 42.636719 83.492188 42.855469 83.273438 C 43.074219 83.058594 43.324219 82.890625 43.609375 82.769531 C 43.894531 82.652344 44.191406 82.59375 44.5 82.59375 C 44.8125 82.59375 45.109375 82.652344 45.394531 82.769531 C 45.679688 82.890625 45.929688 83.058594 46.148438 83.273438 C 46.367188 83.492188 46.535156 83.746094 46.652344 84.027344 C 46.773438 84.3125 46.832031 84.609375 46.832031 84.917969 L 46.832031 102.582031 C 46.832031 102.890625 46.773438 103.1875 46.652344 103.472656 C 46.535156 103.753906 46.367188 104.007812 46.148438 104.226562 C 45.929688 104.441406 45.679688 104.609375 45.394531 104.730469 C 45.109375 104.847656 44.8125 104.90625 44.5 104.90625 Z M 44.5 104.90625 " fill-opacity="1" fill-rule="nonzero"/><g clip-path="url(#478462fc8c)"><path fill="#ffffff" d="M 138.632812 168.722656 L 51.753906 168.722656 C 51.125 168.722656 50.503906 168.660156 49.886719 168.539062 C 49.269531 168.414062 48.671875 168.234375 48.089844 167.992188 C 47.507812 167.75 46.957031 167.457031 46.433594 167.109375 C 45.910156 166.757812 45.425781 166.363281 44.980469 165.917969 C 44.539062 165.472656 44.140625 164.992188 43.789062 164.46875 C 43.441406 163.945312 43.144531 163.394531 42.90625 162.816406 C 42.664062 162.234375 42.480469 161.636719 42.359375 161.023438 C 42.234375 160.40625 42.171875 159.785156 42.171875 159.15625 L 42.171875 143.039062 C 42.171875 142.730469 42.234375 142.433594 42.351562 142.148438 C 42.46875 141.863281 42.636719 141.613281 42.855469 141.394531 C 43.074219 141.179688 43.324219 141.011719 43.609375 140.890625 C 43.894531 140.773438 44.191406 140.714844 44.5 140.714844 C 44.808594 140.714844 45.105469 140.773438 45.390625 140.890625 C 45.675781 141.011719 45.929688 141.179688 46.148438 141.394531 C 46.367188 141.613281 46.535156 141.863281 46.652344 142.148438 C 46.769531 142.433594 46.832031 142.730469 46.832031 143.039062 L 46.832031 159.15625 C 46.832031 159.480469 46.863281 159.800781 46.925781 160.117188 C 46.988281 160.433594 47.082031 160.738281 47.207031 161.039062 C 47.332031 161.335938 47.484375 161.617188 47.664062 161.886719 C 47.84375 162.15625 48.046875 162.402344 48.273438 162.632812 C 48.503906 162.859375 48.75 163.0625 49.019531 163.242188 C 49.289062 163.421875 49.574219 163.574219 49.871094 163.699219 C 50.167969 163.820312 50.476562 163.914062 50.792969 163.976562 C 51.109375 164.042969 51.429688 164.074219 51.753906 164.074219 L 138.632812 164.074219 C 139.621094 164.074219 140.601562 163.976562 141.570312 163.78125 C 142.542969 163.589844 143.484375 163.304688 144.394531 162.925781 C 145.308594 162.546875 146.175781 162.082031 147 161.535156 C 147.820312 160.984375 148.582031 160.363281 149.28125 159.664062 C 149.980469 158.964844 150.605469 158.207031 151.15625 157.386719 C 151.703125 156.566406 152.167969 155.699219 152.546875 154.789062 C 152.925781 153.875 153.210938 152.9375 153.40625 151.96875 C 153.601562 151 153.699219 150.023438 153.699219 149.035156 L 153.699219 38.464844 C 153.699219 37.476562 153.601562 36.5 153.40625 35.53125 C 153.210938 34.5625 152.925781 33.625 152.546875 32.710938 C 152.167969 31.800781 151.703125 30.933594 151.15625 30.113281 C 150.605469 29.292969 149.980469 28.535156 149.28125 27.835938 C 148.582031 27.136719 147.820312 26.515625 147 25.964844 C 146.175781 25.417969 145.308594 24.953125 144.394531 24.574219 C 143.484375 24.195312 142.542969 23.910156 141.570312 23.71875 C 140.601562 23.523438 139.621094 23.425781 138.632812 23.425781 L 51.753906 23.425781 C 51.429688 23.425781 51.109375 23.457031 50.792969 23.523438 C 50.476562 23.585938 50.167969 23.679688 49.871094 23.800781 C 49.574219 23.925781 49.289062 24.078125 49.019531 24.257812 C 48.75 24.4375 48.503906 24.640625 48.273438 24.867188 C 48.046875 25.097656 47.84375 25.34375 47.664062 25.613281 C 47.484375 25.882812 47.332031 26.164062 47.207031 26.460938 C 47.082031 26.761719 46.988281 27.066406 46.925781 27.382812 C 46.863281 27.699219 46.832031 28.019531 46.832031 28.34375 L 46.832031 44.460938 C 46.832031 44.769531 46.773438 45.066406 46.652344 45.351562 C 46.535156 45.636719 46.367188 45.886719 46.148438 46.105469 C 45.929688 46.324219 45.679688 46.492188 45.394531 46.609375 C 45.109375 46.726562 44.8125 46.785156 44.5 46.785156 C 44.191406 46.785156 43.894531 46.726562 43.609375 46.609375 C 43.324219 46.492188 43.074219 46.324219 42.855469 46.105469 C 42.636719 45.886719 42.46875 45.636719 42.351562 45.351562 C 42.230469 45.066406 42.171875 44.769531 42.171875 44.460938 L 42.171875 28.34375 C 42.171875 27.714844 42.234375 27.09375 42.359375 26.476562 C 42.480469 25.863281 42.664062 25.265625 42.90625 24.683594 C 43.144531 24.105469 43.441406 23.554688 43.789062 23.03125 C 44.140625 22.507812 44.539062 22.027344 44.980469 21.582031 C 45.425781 21.136719 45.910156 20.742188 46.433594 20.390625 C 46.957031 20.042969 47.507812 19.75 48.089844 19.507812 C 48.671875 19.265625 49.269531 19.085938 49.886719 18.960938 C 50.503906 18.839844 51.125 18.777344 51.753906 18.777344 L 138.632812 18.777344 C 149.507812 18.777344 158.355469 27.609375 158.355469 38.464844 L 158.355469 149.035156 C 158.355469 159.890625 149.511719 168.722656 138.632812 168.722656 Z M 138.632812 168.722656 " fill-opacity="1" fill-rule="nonzero"/></g><path fill="#ffffff" d="M 44.5 133.964844 C 44.191406 133.964844 43.894531 133.90625 43.609375 133.789062 C 43.324219 133.671875 43.074219 133.503906 42.855469 133.285156 C 42.636719 133.066406 42.46875 132.816406 42.351562 132.53125 C 42.230469 132.246094 42.171875 131.949219 42.171875 131.640625 L 42.171875 113.976562 C 42.171875 113.671875 42.230469 113.375 42.351562 113.089844 C 42.46875 112.804688 42.636719 112.550781 42.855469 112.335938 C 43.074219 112.117188 43.324219 111.949219 43.609375 111.832031 C 43.894531 111.710938 44.191406 111.652344 44.5 111.652344 C 44.8125 111.652344 45.109375 111.710938 45.394531 111.832031 C 45.679688 111.949219 45.929688 112.117188 46.148438 112.335938 C 46.367188 112.550781 46.535156 112.804688 46.652344 113.089844 C 46.773438 113.375 46.832031 113.671875 46.832031 113.976562 L 46.832031 131.640625 C 46.832031 131.949219 46.773438 132.246094 46.652344 132.53125 C 46.535156 132.816406 46.367188 133.066406 46.148438 133.285156 C 45.929688 133.503906 45.679688 133.671875 45.394531 133.789062 C 45.109375 133.90625 44.8125 133.964844 44.5 133.964844 Z M 44.5 133.964844 " fill-opacity="1" fill-rule="nonzero"/><path fill="#ffffff" d="M 44.5 75.847656 C 44.191406 75.847656 43.894531 75.789062 43.609375 75.667969 C 43.324219 75.550781 43.074219 75.382812 42.855469 75.164062 C 42.636719 74.949219 42.46875 74.695312 42.351562 74.410156 C 42.230469 74.125 42.171875 73.828125 42.171875 73.523438 L 42.171875 55.859375 C 42.171875 55.550781 42.230469 55.253906 42.351562 54.96875 C 42.46875 54.683594 42.636719 54.433594 42.855469 54.214844 C 43.074219 53.996094 43.324219 53.828125 43.609375 53.710938 C 43.894531 53.59375 44.191406 53.535156 44.5 53.535156 C 44.8125 53.535156 45.109375 53.59375 45.394531 53.710938 C 45.679688 53.828125 45.929688 53.996094 46.148438 54.214844 C 46.367188 54.433594 46.535156 54.683594 46.652344 54.96875 C 46.773438 55.253906 46.832031 55.550781 46.832031 55.859375 L 46.832031 73.523438 C 46.832031 73.828125 46.773438 74.125 46.652344 74.410156 C 46.535156 74.695312 46.367188 74.949219 46.148438 75.164062 C 45.929688 75.382812 45.679688 75.550781 45.394531 75.667969 C 45.109375 75.789062 44.8125 75.847656 44.5 75.847656 Z M 44.5 75.847656 " fill-opacity="1" fill-rule="nonzero"/><g clip-path="url(#14c286ec19)"><path fill="#ffffff" d="M 51.207031 145.363281 L 37.796875 145.363281 C 37.265625 145.363281 36.746094 145.3125 36.226562 145.207031 C 35.710938 145.105469 35.207031 144.953125 34.71875 144.75 C 34.230469 144.550781 33.769531 144.304688 33.328125 144.011719 C 32.890625 143.71875 32.484375 143.386719 32.113281 143.011719 C 31.738281 142.640625 31.40625 142.234375 31.113281 141.796875 C 30.820312 141.359375 30.570312 140.894531 30.371094 140.410156 C 30.167969 139.921875 30.015625 139.421875 29.914062 138.90625 C 29.808594 138.386719 29.757812 137.867188 29.757812 137.339844 C 29.757812 136.8125 29.808594 136.289062 29.914062 135.773438 C 30.015625 135.257812 30.167969 134.753906 30.371094 134.269531 C 30.570312 133.78125 30.820312 133.320312 31.113281 132.882812 C 31.40625 132.445312 31.738281 132.039062 32.113281 131.664062 C 32.484375 131.292969 32.890625 130.960938 33.328125 130.667969 C 33.769531 130.375 34.230469 130.128906 34.71875 129.925781 C 35.207031 129.726562 35.710938 129.574219 36.226562 129.46875 C 36.746094 129.367188 37.265625 129.316406 37.796875 129.316406 L 51.207031 129.316406 C 51.738281 129.316406 52.257812 129.367188 52.777344 129.46875 C 53.292969 129.574219 53.796875 129.726562 54.285156 129.925781 C 54.773438 130.128906 55.234375 130.375 55.675781 130.667969 C 56.113281 130.960938 56.519531 131.292969 56.890625 131.664062 C 57.265625 132.039062 57.597656 132.445312 57.890625 132.882812 C 58.183594 133.320312 58.433594 133.78125 58.632812 134.269531 C 58.835938 134.753906 58.988281 135.257812 59.089844 135.773438 C 59.195312 136.289062 59.246094 136.8125 59.246094 137.339844 C 59.246094 137.867188 59.195312 138.386719 59.089844 138.90625 C 58.988281 139.421875 58.835938 139.921875 58.632812 140.410156 C 58.433594 140.894531 58.183594 141.359375 57.890625 141.796875 C 57.597656 142.234375 57.265625 142.640625 56.890625 143.011719 C 56.519531 143.386719 56.113281 143.71875 55.675781 144.011719 C 55.234375 144.304688 54.773438 144.550781 54.285156 144.75 C 53.796875 144.953125 53.292969 145.105469 52.777344 145.207031 C 52.257812 145.3125 51.738281 145.363281 51.207031 145.363281 Z M 37.796875 133.964844 C 37.347656 133.964844 36.914062 134.050781 36.5 134.222656 C 36.085938 134.394531 35.722656 134.636719 35.40625 134.953125 C 35.089844 135.269531 34.84375 135.636719 34.671875 136.046875 C 34.5 136.460938 34.414062 136.890625 34.414062 137.339844 C 34.414062 137.785156 34.5 138.21875 34.671875 138.628906 C 34.84375 139.042969 35.089844 139.410156 35.40625 139.726562 C 35.722656 140.042969 36.085938 140.285156 36.5 140.457031 C 36.914062 140.628906 37.347656 140.714844 37.796875 140.714844 L 51.207031 140.714844 C 51.65625 140.714844 52.089844 140.628906 52.503906 140.457031 C 52.917969 140.285156 53.28125 140.042969 53.597656 139.726562 C 53.914062 139.410156 54.160156 139.042969 54.332031 138.628906 C 54.503906 138.21875 54.589844 137.785156 54.589844 137.339844 C 54.589844 136.890625 54.503906 136.460938 54.332031 136.046875 C 54.160156 135.636719 53.914062 135.269531 53.597656 134.953125 C 53.28125 134.636719 52.917969 134.394531 52.503906 134.222656 C 52.089844 134.050781 51.65625 133.964844 51.207031 133.964844 Z M 37.796875 133.964844 " fill-opacity="1" fill-rule="nonzero"/></g><g clip-path="url(#0a8486895e)"><path fill="#ffffff" d="M 51.207031 116.304688 L 37.796875 116.304688 C 37.265625 116.304688 36.746094 116.25 36.226562 116.148438 C 35.710938 116.046875 35.207031 115.894531 34.71875 115.691406 C 34.230469 115.492188 33.769531 115.242188 33.328125 114.949219 C 32.890625 114.660156 32.484375 114.324219 32.113281 113.953125 C 31.738281 113.582031 31.40625 113.175781 31.113281 112.738281 C 30.820312 112.300781 30.570312 111.835938 30.371094 111.351562 C 30.167969 110.863281 30.015625 110.363281 29.914062 109.84375 C 29.808594 109.328125 29.757812 108.804688 29.757812 108.28125 C 29.757812 107.753906 29.808594 107.230469 29.914062 106.714844 C 30.015625 106.199219 30.167969 105.695312 30.371094 105.210938 C 30.570312 104.722656 30.820312 104.261719 31.113281 103.820312 C 31.40625 103.382812 31.738281 102.980469 32.113281 102.605469 C 32.484375 102.234375 32.890625 101.902344 33.328125 101.609375 C 33.769531 101.316406 34.230469 101.070312 34.71875 100.867188 C 35.207031 100.664062 35.710938 100.511719 36.226562 100.410156 C 36.746094 100.308594 37.265625 100.257812 37.796875 100.257812 L 51.207031 100.257812 C 51.738281 100.257812 52.257812 100.308594 52.777344 100.410156 C 53.292969 100.511719 53.796875 100.664062 54.285156 100.867188 C 54.773438 101.070312 55.234375 101.316406 55.675781 101.609375 C 56.113281 101.902344 56.519531 102.234375 56.890625 102.605469 C 57.265625 102.980469 57.597656 103.382812 57.890625 103.820312 C 58.183594 104.261719 58.433594 104.722656 58.632812 105.210938 C 58.835938 105.695312 58.988281 106.199219 59.089844 106.714844 C 59.195312 107.230469 59.246094 107.753906 59.246094 108.28125 C 59.246094 108.804688 59.195312 109.328125 59.089844 109.84375 C 58.988281 110.363281 58.835938 110.863281 58.632812 111.351562 C 58.433594 111.835938 58.183594 112.300781 57.890625 112.738281 C 57.597656 113.175781 57.265625 113.582031 56.890625 113.953125 C 56.519531 114.324219 56.113281 114.660156 55.675781 114.949219 C 55.234375 115.242188 54.773438 115.492188 54.285156 115.691406 C 53.796875 115.894531 53.292969 116.046875 52.777344 116.148438 C 52.257812 116.25 51.738281 116.304688 51.207031 116.304688 Z M 37.796875 104.90625 C 37.347656 104.90625 36.914062 104.992188 36.5 105.164062 C 36.085938 105.332031 35.722656 105.578125 35.40625 105.894531 C 35.089844 106.210938 34.84375 106.574219 34.671875 106.988281 C 34.5 107.402344 34.414062 107.832031 34.414062 108.28125 C 34.414062 108.726562 34.5 109.15625 34.671875 109.570312 C 34.84375 109.984375 35.089844 110.347656 35.40625 110.664062 C 35.722656 110.980469 36.085938 111.226562 36.5 111.398438 C 36.914062 111.566406 37.347656 111.652344 37.796875 111.652344 L 51.207031 111.652344 C 51.65625 111.652344 52.089844 111.566406 52.503906 111.398438 C 52.917969 111.226562 53.28125 110.980469 53.597656 110.664062 C 53.914062 110.347656 54.160156 109.984375 54.332031 109.570312 C 54.503906 109.15625 54.589844 108.726562 54.589844 108.28125 C 54.589844 107.832031 54.503906 107.402344 54.332031 106.988281 C 54.160156 106.574219 53.914062 106.210938 53.597656 105.894531 C 53.28125 105.578125 52.917969 105.332031 52.503906 105.164062 C 52.089844 104.992188 51.65625 104.90625 51.207031 104.90625 Z M 37.796875 104.90625 " fill-opacity="1" fill-rule="nonzero"/></g><g clip-path="url(#ea80f2c389)"><path fill="#ffffff" d="M 51.207031 87.242188 L 37.796875 87.242188 C 37.265625 87.242188 36.746094 87.191406 36.226562 87.089844 C 35.710938 86.988281 35.207031 86.835938 34.71875 86.632812 C 34.230469 86.429688 33.769531 86.183594 33.328125 85.890625 C 32.890625 85.597656 32.484375 85.265625 32.113281 84.894531 C 31.738281 84.519531 31.40625 84.117188 31.113281 83.675781 C 30.820312 83.238281 30.570312 82.777344 30.371094 82.289062 C 30.167969 81.804688 30.015625 81.300781 29.914062 80.785156 C 29.808594 80.269531 29.757812 79.746094 29.757812 79.21875 C 29.757812 78.695312 29.808594 78.171875 29.914062 77.65625 C 30.015625 77.136719 30.167969 76.636719 30.371094 76.148438 C 30.570312 75.664062 30.820312 75.199219 31.113281 74.761719 C 31.40625 74.324219 31.738281 73.917969 32.113281 73.546875 C 32.484375 73.175781 32.890625 72.839844 33.328125 72.550781 C 33.769531 72.257812 34.230469 72.007812 34.71875 71.808594 C 35.207031 71.605469 35.710938 71.453125 36.226562 71.351562 C 36.746094 71.25 37.265625 71.195312 37.796875 71.195312 L 51.207031 71.195312 C 51.738281 71.195312 52.257812 71.25 52.777344 71.351562 C 53.292969 71.453125 53.796875 71.605469 54.285156 71.808594 C 54.773438 72.007812 55.234375 72.257812 55.675781 72.550781 C 56.113281 72.839844 56.519531 73.175781 56.890625 73.546875 C 57.265625 73.917969 57.597656 74.324219 57.890625 74.761719 C 58.183594 75.199219 58.433594 75.664062 58.632812 76.148438 C 58.835938 76.636719 58.988281 77.136719 59.089844 77.65625 C 59.195312 78.171875 59.246094 78.695312 59.246094 79.21875 C 59.246094 79.746094 59.195312 80.269531 59.089844 80.785156 C 58.988281 81.300781 58.835938 81.804688 58.632812 82.289062 C 58.433594 82.777344 58.183594 83.238281 57.890625 83.675781 C 57.597656 84.117188 57.265625 84.519531 56.890625 84.894531 C 56.519531 85.265625 56.113281 85.597656 55.675781 85.890625 C 55.234375 86.183594 54.773438 86.429688 54.285156 86.632812 C 53.796875 86.835938 53.292969 86.988281 52.777344 87.089844 C 52.257812 87.191406 51.738281 87.242188 51.207031 87.242188 Z M 37.796875 75.847656 C 37.347656 75.847656 36.914062 75.933594 36.5 76.101562 C 36.085938 76.273438 35.722656 76.519531 35.40625 76.835938 C 35.089844 77.152344 34.84375 77.515625 34.671875 77.929688 C 34.5 78.34375 34.414062 78.773438 34.414062 79.21875 C 34.414062 79.667969 34.5 80.097656 34.671875 80.511719 C 34.84375 80.925781 35.089844 81.289062 35.40625 81.605469 C 35.722656 81.921875 36.085938 82.164062 36.5 82.335938 C 36.914062 82.507812 37.347656 82.59375 37.796875 82.59375 L 51.207031 82.59375 C 51.65625 82.59375 52.089844 82.507812 52.503906 82.335938 C 52.917969 82.164062 53.28125 81.921875 53.597656 81.605469 C 53.914062 81.289062 54.160156 80.925781 54.332031 80.511719 C 54.503906 80.097656 54.589844 79.667969 54.589844 79.21875 C 54.589844 78.773438 54.503906 78.34375 54.332031 77.929688 C 54.160156 77.515625 53.914062 77.152344 53.597656 76.835938 C 53.28125 76.519531 52.917969 76.273438 52.503906 76.101562 C 52.089844 75.933594 51.65625 75.847656 51.207031 75.847656 Z M 37.796875 75.847656 " fill-opacity="1" fill-rule="nonzero"/></g><g clip-path="url(#881e9f861b)"><path fill="#ffffff" d="M 51.207031 58.183594 L 37.796875 58.183594 C 37.265625 58.183594 36.746094 58.132812 36.226562 58.03125 C 35.710938 57.925781 35.207031 57.773438 34.71875 57.574219 C 34.230469 57.371094 33.769531 57.125 33.328125 56.832031 C 32.890625 56.539062 32.484375 56.207031 32.113281 55.835938 C 31.738281 55.460938 31.40625 55.054688 31.113281 54.617188 C 30.820312 54.179688 30.570312 53.71875 30.371094 53.230469 C 30.167969 52.746094 30.015625 52.242188 29.914062 51.726562 C 29.808594 51.210938 29.757812 50.6875 29.757812 50.160156 C 29.757812 49.632812 29.808594 49.113281 29.914062 48.59375 C 30.015625 48.078125 30.167969 47.578125 30.371094 47.089844 C 30.570312 46.605469 30.820312 46.140625 31.113281 45.703125 C 31.40625 45.265625 31.738281 44.859375 32.113281 44.488281 C 32.484375 44.113281 32.890625 43.78125 33.328125 43.488281 C 33.769531 43.195312 34.230469 42.949219 34.71875 42.75 C 35.207031 42.546875 35.710938 42.394531 36.226562 42.292969 C 36.746094 42.1875 37.265625 42.136719 37.796875 42.136719 L 51.207031 42.136719 C 51.738281 42.136719 52.257812 42.1875 52.777344 42.292969 C 53.292969 42.394531 53.796875 42.546875 54.285156 42.75 C 54.773438 42.949219 55.234375 43.195312 55.675781 43.488281 C 56.113281 43.78125 56.519531 44.113281 56.890625 44.488281 C 57.265625 44.859375 57.597656 45.265625 57.890625 45.703125 C 58.183594 46.140625 58.433594 46.605469 58.632812 47.089844 C 58.835938 47.578125 58.988281 48.078125 59.089844 48.59375 C 59.195312 49.113281 59.246094 49.632812 59.246094 50.160156 C 59.246094 50.6875 59.195312 51.210938 59.089844 51.726562 C 58.988281 52.242188 58.835938 52.746094 58.632812 53.230469 C 58.433594 53.71875 58.183594 54.179688 57.890625 54.617188 C 57.597656 55.054688 57.265625 55.460938 56.890625 55.835938 C 56.519531 56.207031 56.113281 56.539062 55.675781 56.832031 C 55.234375 57.125 54.773438 57.371094 54.285156 57.574219 C 53.796875 57.773438 53.292969 57.925781 52.777344 58.03125 C 52.257812 58.132812 51.738281 58.183594 51.207031 58.183594 Z M 37.796875 46.785156 C 37.347656 46.785156 36.914062 46.871094 36.5 47.042969 C 36.085938 47.214844 35.722656 47.457031 35.40625 47.773438 C 35.089844 48.089844 34.84375 48.457031 34.671875 48.871094 C 34.5 49.28125 34.414062 49.714844 34.414062 50.160156 C 34.414062 50.609375 34.5 51.039062 34.671875 51.453125 C 34.84375 51.863281 35.089844 52.230469 35.40625 52.546875 C 35.722656 52.863281 36.085938 53.105469 36.5 53.277344 C 36.914062 53.449219 37.347656 53.535156 37.796875 53.535156 L 51.207031 53.535156 C 51.65625 53.535156 52.089844 53.449219 52.503906 53.277344 C 52.917969 53.105469 53.28125 52.863281 53.597656 52.546875 C 53.914062 52.230469 54.160156 51.863281 54.332031 51.453125 C 54.503906 51.039062 54.589844 50.609375 54.589844 50.160156 C 54.589844 49.714844 54.503906 49.28125 54.332031 48.871094 C 54.160156 48.457031 53.914062 48.089844 53.597656 47.773438 C 53.28125 47.457031 52.917969 47.214844 52.503906 47.042969 C 52.089844 46.871094 51.65625 46.785156 51.207031 46.785156 Z M 37.796875 46.785156 " fill-opacity="1" fill-rule="nonzero"/></g><path fill="#ffffff" d="M 140.535156 52.484375 L 72 52.484375 C 71.691406 52.484375 71.394531 52.425781 71.109375 52.308594 C 70.824219 52.191406 70.570312 52.023438 70.351562 51.804688 C 70.132812 51.585938 69.964844 51.335938 69.847656 51.050781 C 69.730469 50.765625 69.671875 50.46875 69.671875 50.160156 C 69.671875 49.851562 69.730469 49.554688 69.847656 49.269531 C 69.964844 48.984375 70.132812 48.734375 70.351562 48.515625 C 70.570312 48.300781 70.824219 48.128906 71.109375 48.011719 C 71.394531 47.894531 71.691406 47.835938 72 47.835938 L 140.535156 47.835938 C 140.84375 47.835938 141.140625 47.894531 141.425781 48.011719 C 141.710938 48.128906 141.964844 48.300781 142.183594 48.515625 C 142.398438 48.734375 142.570312 48.984375 142.6875 49.269531 C 142.804688 49.554688 142.863281 49.851562 142.863281 50.160156 C 142.863281 50.46875 142.804688 50.765625 142.6875 51.050781 C 142.570312 51.335938 142.398438 51.585938 142.183594 51.804688 C 141.964844 52.023438 141.710938 52.191406 141.425781 52.308594 C 141.140625 52.425781 140.84375 52.484375 140.535156 52.484375 Z M 140.535156 52.484375 " fill-opacity="1" fill-rule="nonzero"/><path fill="#ffffff" d="M 140.535156 81.546875 L 72 81.546875 C 71.691406 81.546875 71.394531 81.484375 71.109375 81.367188 C 70.824219 81.25 70.570312 81.082031 70.351562 80.863281 C 70.132812 80.644531 69.964844 80.394531 69.847656 80.109375 C 69.730469 79.824219 69.671875 79.527344 69.671875 79.21875 C 69.671875 78.910156 69.730469 78.617188 69.847656 78.332031 C 69.964844 78.046875 70.132812 77.792969 70.351562 77.578125 C 70.570312 77.359375 70.824219 77.191406 71.109375 77.074219 C 71.394531 76.953125 71.691406 76.894531 72 76.894531 L 140.535156 76.894531 C 140.84375 76.894531 141.140625 76.953125 141.425781 77.074219 C 141.710938 77.191406 141.964844 77.359375 142.183594 77.578125 C 142.398438 77.792969 142.570312 78.046875 142.6875 78.332031 C 142.804688 78.617188 142.863281 78.910156 142.863281 79.21875 C 142.863281 79.527344 142.804688 79.824219 142.6875 80.109375 C 142.570312 80.394531 142.398438 80.644531 142.183594 80.863281 C 141.964844 81.082031 141.710938 81.25 141.425781 81.367188 C 141.140625 81.484375 140.84375 81.546875 140.535156 81.546875 Z M 140.535156 81.546875 " fill-opacity="1" fill-rule="nonzero"/><path fill="#ffffff" d="M 140.535156 110.605469 L 72 110.605469 C 71.691406 110.605469 71.394531 110.546875 71.109375 110.425781 C 70.824219 110.308594 70.570312 110.140625 70.351562 109.921875 C 70.132812 109.707031 69.964844 109.453125 69.847656 109.167969 C 69.730469 108.882812 69.671875 108.589844 69.671875 108.28125 C 69.671875 107.972656 69.730469 107.675781 69.847656 107.390625 C 69.964844 107.105469 70.132812 106.855469 70.351562 106.636719 C 70.570312 106.417969 70.824219 106.25 71.109375 106.132812 C 71.394531 106.015625 71.691406 105.953125 72 105.953125 L 140.535156 105.953125 C 140.84375 105.953125 141.140625 106.015625 141.425781 106.132812 C 141.710938 106.25 141.964844 106.417969 142.183594 106.636719 C 142.398438 106.855469 142.570312 107.105469 142.6875 107.390625 C 142.804688 107.675781 142.863281 107.972656 142.863281 108.28125 C 142.863281 108.589844 142.804688 108.882812 142.6875 109.167969 C 142.570312 109.453125 142.398438 109.707031 142.183594 109.921875 C 141.964844 110.140625 141.710938 110.308594 141.425781 110.425781 C 141.140625 110.546875 140.84375 110.605469 140.535156 110.605469 Z M 140.535156 110.605469 " fill-opacity="1" fill-rule="nonzero"/><path fill="#ffffff" d="M 140.535156 139.664062 L 72 139.664062 C 71.691406 139.664062 71.394531 139.605469 71.109375 139.488281 C 70.824219 139.367188 70.570312 139.199219 70.351562 138.984375 C 70.132812 138.765625 69.964844 138.515625 69.847656 138.230469 C 69.730469 137.945312 69.671875 137.648438 69.671875 137.339844 C 69.671875 137.03125 69.730469 136.734375 69.847656 136.449219 C 69.964844 136.164062 70.132812 135.914062 70.351562 135.695312 C 70.570312 135.476562 70.824219 135.308594 71.109375 135.191406 C 71.394531 135.074219 71.691406 135.015625 72 135.015625 L 140.535156 135.015625 C 140.84375 135.015625 141.140625 135.074219 141.425781 135.191406 C 141.710938 135.308594 141.964844 135.476562 142.183594 135.695312 C 142.398438 135.914062 142.570312 136.164062 142.6875 136.449219 C 142.804688 136.734375 142.863281 137.03125 142.863281 137.339844 C 142.863281 137.648438 142.804688 137.945312 142.6875 138.230469 C 142.570312 138.515625 142.398438 138.765625 142.183594 138.984375 C 141.964844 139.199219 141.710938 139.367188 141.425781 139.488281 C 141.140625 139.605469 140.84375 139.664062 140.535156 139.664062 Z M 140.535156 139.664062 " fill-opacity="1" fill-rule="nonzero"/></svg>