<svg xmlns="http://www.w3.org/2000/svg" xmlns:xlink="http://www.w3.org/1999/xlink" width="250" zoomAndPan="magnify" viewBox="0 0 187.5 187.499992" height="250" preserveAspectRatio="xMidYMid meet" version="1.0"><defs><clipPath id="6d0b90ace0"><path d="M 70.023438 56.25 L 117.273438 56.25 L 117.273438 131.25 L 70.023438 131.25 Z M 70.023438 56.25 " clip-rule="nonzero"/></clipPath></defs><g clip-path="url(#6d0b90ace0)"><path fill="#ffffff" d="M 93.644531 56.25 C 89.863281 56.25 86.871094 59.34375 86.597656 63.167969 L 83.632812 63.167969 C 82.949219 63.167969 82.308594 63.527344 81.9375 63.96875 C 81.566406 64.40625 81.382812 64.890625 81.257812 65.351562 L 80.734375 67.265625 L 73.558594 67.265625 C 71.621094 67.265625 70.070312 68.921875 70.070312 70.875 L 70.070312 127.640625 C 70.070312 129.597656 71.621094 131.246094 73.558594 131.246094 L 113.734375 131.246094 C 115.671875 131.246094 117.21875 129.597656 117.21875 127.640625 L 117.21875 70.875 C 117.21875 68.921875 115.671875 67.265625 113.734375 67.265625 L 106.558594 67.265625 L 106.035156 65.351562 C 105.910156 64.890625 105.722656 64.40625 105.351562 63.96875 C 104.984375 63.527344 104.34375 63.167969 103.660156 63.167969 L 100.695312 63.167969 C 100.417969 59.34375 97.425781 56.25 93.644531 56.25 Z M 93.644531 58.457031 C 96.367188 58.457031 98.597656 60.765625 98.597656 63.695312 C 98.597656 63.855469 98.585938 64.011719 98.570312 64.167969 C 98.542969 64.476562 98.644531 64.785156 98.851562 65.015625 C 99.0625 65.246094 99.355469 65.375 99.667969 65.375 L 103.660156 65.375 C 103.664062 65.378906 103.667969 65.386719 103.675781 65.394531 C 103.730469 65.460938 103.839844 65.664062 103.914062 65.9375 L 104.640625 68.609375 C 104.652344 68.644531 104.660156 68.683594 104.671875 68.722656 L 105.851562 73.03125 C 105.757812 73.09375 105.5625 73.179688 105.414062 73.179688 L 81.871094 73.179688 C 81.722656 73.179688 81.53125 73.09375 81.4375 73.03125 L 82.632812 68.660156 C 82.636719 68.644531 82.640625 68.632812 82.644531 68.621094 L 83.378906 65.9375 C 83.453125 65.664062 83.5625 65.460938 83.617188 65.394531 C 83.625 65.386719 83.628906 65.378906 83.628906 65.375 C 83.632812 65.375 83.632812 65.375 83.632812 65.375 L 87.625 65.375 C 87.933594 65.375 88.230469 65.242188 88.441406 65.011719 C 88.648438 64.78125 88.75 64.472656 88.71875 64.164062 C 88.703125 64.003906 88.695312 63.847656 88.691406 63.695312 C 88.691406 60.765625 90.921875 58.457031 93.644531 58.457031 Z M 93.644531 60.871094 C 91.941406 60.871094 90.582031 62.324219 90.582031 64.03125 C 90.582031 65.742188 91.941406 67.195312 93.644531 67.195312 C 95.347656 67.195312 96.710938 65.742188 96.710938 64.03125 C 96.710938 62.324219 95.347656 60.871094 93.644531 60.871094 Z M 93.644531 63.082031 C 94.105469 63.082031 94.507812 63.46875 94.507812 64.03125 C 94.507812 64.597656 94.105469 64.984375 93.644531 64.984375 C 93.179688 64.984375 92.78125 64.597656 92.78125 64.03125 C 92.78125 63.46875 93.179688 63.082031 93.644531 63.082031 Z M 73.558594 69.480469 L 80.128906 69.480469 L 79.273438 72.617188 C 79.039062 73.460938 79.480469 74.296875 80.011719 74.734375 C 80.542969 75.167969 81.179688 75.386719 81.875 75.386719 L 105.414062 75.386719 C 106.109375 75.386719 106.75 75.167969 107.28125 74.734375 C 107.8125 74.296875 108.25 73.460938 108.019531 72.617188 L 107.164062 69.480469 L 113.734375 69.480469 C 114.441406 69.480469 115.019531 70.058594 115.019531 70.875 L 115.019531 127.640625 C 115.019531 128.460938 114.441406 129.039062 113.734375 129.039062 L 73.558594 129.039062 C 72.851562 129.039062 72.269531 128.460938 72.269531 127.640625 L 72.269531 70.875 C 72.269531 70.058594 72.851562 69.480469 73.558594 69.480469 Z M 84.570312 81.667969 C 84.273438 81.664062 83.988281 81.785156 83.777344 81.996094 L 81 84.714844 L 79.714844 83.464844 C 79.433594 83.179688 79.023438 83.070312 78.640625 83.179688 C 78.257812 83.285156 77.960938 83.59375 77.867188 83.980469 C 77.773438 84.371094 77.894531 84.78125 78.1875 85.054688 L 80.238281 87.046875 C 80.433594 87.238281 80.699219 87.351562 80.972656 87.359375 C 81.269531 87.367188 81.558594 87.253906 81.769531 87.046875 L 85.308594 83.582031 C 85.640625 83.273438 85.75 82.792969 85.585938 82.371094 C 85.421875 81.949219 85.019531 81.671875 84.570312 81.667969 Z M 88.863281 85.148438 C 88.460938 85.140625 88.089844 85.351562 87.886719 85.699219 C 87.683594 86.046875 87.6875 86.476562 87.894531 86.824219 C 88.101562 87.167969 88.476562 87.375 88.878906 87.359375 L 108.335938 87.359375 C 108.734375 87.375 109.113281 87.164062 109.320312 86.816406 C 109.523438 86.46875 109.523438 86.039062 109.320312 85.691406 C 109.113281 85.34375 108.734375 85.132812 108.335938 85.148438 L 88.878906 85.148438 C 88.871094 85.148438 88.867188 85.148438 88.863281 85.148438 Z M 84.570312 92.425781 C 84.273438 92.421875 83.988281 92.542969 83.777344 92.753906 L 81 95.472656 L 79.714844 94.222656 C 79.433594 93.9375 79.023438 93.828125 78.640625 93.9375 C 78.257812 94.042969 77.960938 94.351562 77.867188 94.742188 C 77.773438 95.128906 77.894531 95.539062 78.1875 95.8125 L 80.238281 97.804688 C 80.433594 97.996094 80.699219 98.109375 80.972656 98.117188 C 81.269531 98.125 81.558594 98.011719 81.769531 97.804688 L 85.308594 94.339844 C 85.640625 94.03125 85.75 93.554688 85.585938 93.132812 C 85.421875 92.707031 85.019531 92.429688 84.570312 92.425781 Z M 88.863281 95.90625 C 88.460938 95.898438 88.089844 96.109375 87.886719 96.457031 C 87.683594 96.804688 87.6875 97.234375 87.894531 97.582031 C 88.101562 97.925781 88.476562 98.132812 88.878906 98.117188 L 108.335938 98.117188 C 108.738281 98.132812 109.113281 97.925781 109.320312 97.578125 C 109.527344 97.230469 109.527344 96.796875 109.320312 96.449219 C 109.113281 96.101562 108.738281 95.894531 108.335938 95.90625 L 88.878906 95.90625 C 88.871094 95.90625 88.867188 95.90625 88.863281 95.90625 Z M 84.570312 103.183594 C 84.273438 103.183594 83.988281 103.300781 83.777344 103.511719 L 81 106.226562 L 79.714844 104.980469 C 79.433594 104.695312 79.023438 104.585938 78.640625 104.695312 C 78.253906 104.800781 77.960938 105.109375 77.867188 105.5 C 77.773438 105.886719 77.894531 106.296875 78.1875 106.570312 L 80.238281 108.5625 C 80.433594 108.757812 80.699219 108.867188 80.972656 108.875 C 81.269531 108.882812 81.558594 108.769531 81.769531 108.558594 L 85.308594 105.101562 C 85.640625 104.792969 85.75 104.3125 85.585938 103.890625 C 85.421875 103.46875 85.019531 103.1875 84.570312 103.183594 Z M 88.863281 106.664062 C 88.460938 106.65625 88.089844 106.867188 87.886719 107.214844 C 87.683594 107.5625 87.6875 107.992188 87.894531 108.339844 C 88.101562 108.683594 88.476562 108.890625 88.878906 108.875 L 108.335938 108.875 C 108.734375 108.890625 109.113281 108.683594 109.320312 108.335938 C 109.523438 107.988281 109.523438 107.554688 109.320312 107.207031 C 109.113281 106.859375 108.734375 106.652344 108.335938 106.664062 L 88.878906 106.664062 C 88.871094 106.664062 88.867188 106.664062 88.863281 106.664062 Z M 84.570312 113.941406 C 84.273438 113.941406 83.988281 114.058594 83.777344 114.273438 L 81 116.984375 L 79.714844 115.738281 C 79.433594 115.453125 79.023438 115.34375 78.640625 115.453125 C 78.253906 115.558594 77.960938 115.867188 77.867188 116.257812 C 77.773438 116.644531 77.894531 117.054688 78.1875 117.328125 L 80.238281 119.320312 C 80.433594 119.515625 80.699219 119.625 80.972656 119.632812 C 81.269531 119.640625 81.558594 119.527344 81.769531 119.320312 L 85.308594 115.859375 C 85.640625 115.550781 85.75 115.070312 85.585938 114.648438 C 85.421875 114.226562 85.019531 113.945312 84.570312 113.941406 Z M 88.878906 117.421875 C 88.269531 117.421875 87.777344 117.917969 87.777344 118.527344 C 87.777344 119.140625 88.269531 119.632812 88.878906 119.632812 L 108.335938 119.632812 C 108.941406 119.632812 109.4375 119.140625 109.4375 118.527344 C 109.4375 117.917969 108.941406 117.421875 108.335938 117.421875 Z M 88.878906 117.421875 " fill-opacity="1" fill-rule="nonzero"/></g></svg>