<svg xmlns="http://www.w3.org/2000/svg" xmlns:xlink="http://www.w3.org/1999/xlink" width="600" zoomAndPan="magnify" viewBox="0 0 450 525.000007" height="700" preserveAspectRatio="xMidYMid meet" version="1.0"><defs><clipPath id="1fcba6cc06"><path d="M 236 275 L 311 275 L 311 366.800781 L 236 366.800781 Z M 236 275 " clip-rule="nonzero"/></clipPath></defs><path fill="#e6e7e8" d="M 176.507812 179.402344 C 207.574219 157.160156 250.777344 164.328125 273.007812 195.417969 C 295.234375 226.503906 288.066406 269.734375 257 291.972656 C 225.933594 314.214844 182.730469 307.046875 160.5 275.957031 C 138.273438 244.871094 145.441406 201.640625 176.507812 179.402344 Z M 183.5 189.183594 C 209.167969 170.808594 244.863281 176.730469 263.230469 202.414062 C 281.59375 228.097656 275.671875 263.816406 250.003906 282.191406 C 224.335938 300.566406 188.644531 294.644531 170.277344 268.960938 C 151.914062 243.277344 157.832031 207.558594 183.5 189.183594 Z M 183.5 189.183594 " fill-opacity="1" fill-rule="evenodd"/><g clip-path="url(#1fcba6cc06)"><path fill="#e6e7e8" d="M 236.835938 292.265625 L 261.4375 275.964844 C 261.644531 275.828125 261.875 275.738281 262.125 275.699219 C 262.375 275.65625 262.625 275.667969 262.878906 275.730469 C 263.132812 275.796875 263.371094 275.90625 263.589844 276.0625 C 263.808594 276.222656 263.992188 276.414062 264.140625 276.640625 L 310.433594 346.695312 C 310.582031 346.925781 310.6875 347.167969 310.746094 347.433594 C 310.808594 347.695312 310.816406 347.957031 310.773438 348.214844 C 310.734375 348.472656 310.644531 348.710938 310.511719 348.925781 C 310.375 349.140625 310.203125 349.316406 309.996094 349.453125 L 285.394531 365.753906 C 285.1875 365.890625 284.957031 365.980469 284.707031 366.023438 C 284.457031 366.0625 284.207031 366.050781 283.953125 365.988281 C 283.699219 365.921875 283.460938 365.8125 283.242188 365.65625 C 283.023438 365.5 282.839844 365.304688 282.6875 365.078125 L 236.398438 295.023438 C 236.246094 294.796875 236.144531 294.550781 236.082031 294.285156 C 236.023438 294.023438 236.015625 293.761719 236.054688 293.503906 C 236.097656 293.246094 236.183594 293.007812 236.320312 292.792969 C 236.453125 292.578125 236.625 292.402344 236.835938 292.265625 Z M 236.835938 292.265625 " fill-opacity="1" fill-rule="evenodd"/></g><path fill="#e6e7e8" d="M 168.011719 219.492188 C 179.027344 203.566406 200.234375 186.640625 219.636719 184.65625 C 192.40625 179.117188 170.148438 203.40625 168.011719 219.492188 Z M 168.011719 219.492188 " fill-opacity="1" fill-rule="evenodd"/></svg>